<?xml version="1.0" encoding="UTF-8"?> <svg xmlns="http://www.w3.org/2000/svg" xmlns:xlink="http://www.w3.org/1999/xlink" width="1800.843" height="409.138" viewBox="0 0 1800.843 409.138"><defs><clipPath id="clip-path"><path id="Tracciato_72" data-name="Tracciato 72" d="M124.812-515.316q11.706-21.29,37.289-21.29l149.863-.428,150.007.428q25.571-.016,37.266,21.338t-1,44.876L348.83-212.134q-12.272,21.49-36.512,21.49t-37.457-21.49L125.7-470.392Q113.107-494.026,124.812-515.316Z" fill="#6d9c79" clip-rule="evenodd"></path></clipPath><clipPath id="clip-path-2"><path id="Tracciato_75" data-name="Tracciato 75" d="M420.555-594.142q21.29,11.705,21.29,37.289l.428,149.863-.428,150.007q.016,25.571-21.338,37.266t-44.876-1l-258.257-149.4q-21.49-12.272-21.49-36.512t21.49-37.457L375.631-593.259Q399.266-605.848,420.555-594.142Z" fill="#8ab195" clip-rule="evenodd"></path></clipPath><clipPath id="clip-path-3"><path id="Tracciato_74" data-name="Tracciato 74" d="M0,0H600V-600H0Z" fill="#8ab195"></path></clipPath><clipPath id="clip-path-4"><path id="Tracciato_78" data-name="Tracciato 78" d="M442.273-537.085v163.074L359.155-230.177,217.306-312.449,135.318-454.3l142.416-82.788Z" fill="#5b9269" clip-rule="evenodd"></path></clipPath><clipPath id="clip-path-5"><path id="Tracciato_77" data-name="Tracciato 77" d="M0,0H600V-600H0Z" fill="#5b9269"></path></clipPath><clipPath id="clip-path-6"><path id="Tracciato_81" data-name="Tracciato 81" d="M39-154.293H54.964V-53.9H183.6V-154.293h15.964v214.9H183.6V-40.7H54.964V60.611H39Zm340.47,140.3h-100.7l-23.332,74.6H239.475l56.489-182.054q6.14-20.262,13.508-28.245t19.648-7.982q12.28,0,19.648,7.982t13.508,28.245L418.766,60.611H402.5Zm-3.991-12.894-29.473-94.558q-3.991-11.973-7.522-16.578a11.218,11.218,0,0,0-9.364-4.605,11.355,11.355,0,0,0-9.364,4.452q-3.531,4.452-7.522,16.732L282.763-26.886ZM509.64,63.988q-27.017,0-45.283-8.443t-33-27.784l11.052-9.824q13.2,17.806,28.091,25.174t38.529,7.368q30.7,0,47.74-12.28T573.8,4.122q0-13.2-6.294-21.183T545.867-30.877q-15.35-5.833-44.823-11.359-32.85-6.447-47.893-20.109t-15.043-37.3q0-17.5,8.9-30.7t25.482-20.262q16.578-7.061,38.376-7.061,25.482,0,43.748,8.6a64.178,64.178,0,0,1,28.4,25.481l-11.359,8.9a58.625,58.625,0,0,0-24.407-22.1q-15.5-7.675-36.687-7.675-25.175,0-40.832,12.28T454.072-99.953q0,17.806,13.662,28.4T512.1-55.131q30.087,5.833,46.665,13.048t23.793,18.114q7.215,10.9,7.214,28.091,0,28.859-20.723,44.362T509.64,63.988Zm170.081-205.08H608.8v-13.2H766.911v13.2H695.686v201.7H679.721Zm187.888,201.7q35,0,51.884-15.657T936.379-2.94V-91.05q0-32.236-16.885-47.739t-51.884-15.5h-74.6v13.2h74.6q27.324,0,40.064,12.127T920.414-91.05V-53.6H809.278v13.2H920.414V-2.94q0,25.789-12.894,38.069t-39.911,12.28H790.858v13.2Zm183.283,3.377q-40.525,0-62.015-20.262T967.386-14.3V-79.691q0-38.069,21.337-58.024t62.169-19.955q26.1,0,44.362,6.6a85.6,85.6,0,0,1,32.389,21.03l-11.052,9.824q-23.025-24.254-65.7-24.254-32.849,0-50.2,16.578t-17.346,48.2V-14.3q0,31.622,17.346,48.2t50.5,16.578q30.086,0,48.046-11.513t17.96-31.161V-14.913q0-15.043-8.136-23.025t-23.486-7.982h-37.455V-58.814h39.6q22.1,0,33.464,10.9t11.359,32.082V8.42q0,16.885-9.978,29.319t-28.4,19.341Q1075.759,63.988,1050.892,63.988ZM1296.8-13.992h-100.7l-23.332,74.6h-15.964L1213.3-121.444q6.14-20.262,13.508-28.245t19.648-7.982q12.28,0,19.648,7.982t13.508,28.245L1336.1,60.611h-16.271Zm-3.991-12.894-29.472-94.558q-3.991-11.973-7.522-16.578a11.218,11.218,0,0,0-9.364-4.605,11.356,11.356,0,0,0-9.364,4.452q-3.531,4.452-7.521,16.732L1200.1-26.886Z" transform="translate(-39 157.671)" fill="#5b9269"></path></clipPath><clipPath id="clip-path-7"><path id="Tracciato_80" data-name="Tracciato 80" d="M0,888.844H1488.846V-600H0Z" transform="translate(0 600)" fill="#5b9269"></path></clipPath></defs><g id="Raggruppa_279" data-name="Raggruppa 279" transform="translate(-3872.884 -3764)"><g id="Raggruppa_72" data-name="Raggruppa 72" transform="translate(3777 4363.782)" clip-path="url(#clip-path)"><path id="Tracciato_70" data-name="Tracciato 70" d="M114.172-542.034H509.843v356.389H114.172Z" fill="#6d9c79"></path><path id="Tracciato_71" data-name="Tracciato 71" d="M0,0H600V-600H0Z" fill="#6d9c79"></path></g><g id="Raggruppa_74" data-name="Raggruppa 74" transform="translate(3777 4363.782)" clip-path="url(#clip-path-2)"><g id="Raggruppa_73" data-name="Raggruppa 73" clip-path="url(#clip-path-3)"><path id="Tracciato_73" data-name="Tracciato 73" d="M447.273-604.782v395.671H90.884V-604.782Z" fill="#8ab195"></path></g></g><g id="Raggruppa_76" data-name="Raggruppa 76" transform="translate(3777 4363.782)" clip-path="url(#clip-path-4)"><g id="Raggruppa_75" data-name="Raggruppa 75" clip-path="url(#clip-path-5)"><path id="Tracciato_76" data-name="Tracciato 76" d="M130.318-542.085H447.273v316.909H130.318Z" fill="#5b9269"></path></g></g><g id="Raggruppa_78" data-name="Raggruppa 78" transform="translate(4376.627 3854.007)" clip-path="url(#clip-path-6)"><g id="Raggruppa_77" data-name="Raggruppa 77" transform="translate(-96.775 -1097.599)" clip-path="url(#clip-path-7)"><path id="Tracciato_79" data-name="Tracciato 79" d="M34-162.671H1355.914V83.8H34Z" transform="translate(50.368 1247.863)" fill="#5b9269"></path></g></g></g></svg> 